<svg width="51" height="20" viewBox="0 0 51 20" fill="none" xmlns="http://www.w3.org/2000/svg">
<g filter="url(#filter0_d_3965_15611)">
<path d="M4 14.0002H16V2.00016H4V14.0002ZM22.1532 12.6082C21.6892 12.5922 21.2492 12.5482 20.8332 12.4762C20.4252 12.4042 20.0812 12.3042 19.8012 12.1762V11.0002C20.0892 11.1362 20.4492 11.2602 20.8812 11.3722C21.3212 11.4762 21.7452 11.5322 22.1532 11.5402V9.29616C21.7372 9.16816 21.3772 9.03216 21.0732 8.88816C20.7772 8.74416 20.5332 8.58816 20.3412 8.42016C20.1572 8.24416 20.0172 8.04416 19.9212 7.82016C19.8332 7.59616 19.7892 7.34016 19.7892 7.05216C19.7892 6.66016 19.8852 6.32416 20.0772 6.04416C20.2772 5.75616 20.5532 5.52816 20.9052 5.36016C21.2652 5.19216 21.6812 5.09216 22.1532 5.06016V4.05216H22.9332V5.04816C23.3652 5.05616 23.7612 5.10416 24.1212 5.19216C24.4812 5.27216 24.8212 5.38016 25.1412 5.51616L24.7452 6.54816C24.4732 6.43616 24.1772 6.34416 23.8572 6.27216C23.5452 6.19216 23.2372 6.14016 22.9332 6.11616V8.32416C23.4292 8.48416 23.8572 8.65216 24.2172 8.82816C24.5852 9.00416 24.8692 9.22416 25.0692 9.48816C25.2692 9.74416 25.3692 10.0842 25.3692 10.5082C25.3692 11.0762 25.1572 11.5402 24.7332 11.9002C24.3172 12.2602 23.7172 12.4802 22.9332 12.5602V13.8562H22.1532V12.6082ZM22.9332 11.4922C23.3492 11.4442 23.6492 11.3442 23.8332 11.1922C24.0252 11.0322 24.1212 10.8282 24.1212 10.5802C24.1212 10.4122 24.0812 10.2682 24.0012 10.1482C23.9292 10.0282 23.8052 9.92416 23.6292 9.83616C23.4612 9.74816 23.2292 9.66016 22.9332 9.57216V11.4922ZM22.1532 6.14016C21.9052 6.15616 21.6972 6.20416 21.5292 6.28416C21.3692 6.35616 21.2452 6.45216 21.1572 6.57216C21.0772 6.69216 21.0372 6.83216 21.0372 6.99216C21.0372 7.16816 21.0732 7.32416 21.1452 7.46016C21.2172 7.58816 21.3332 7.70016 21.4932 7.79616C21.6532 7.88416 21.8732 7.96816 22.1532 8.04816V6.14016ZM29.3684 7.84416C29.9364 7.84416 30.4324 7.94416 30.8564 8.14416C31.2804 8.34416 31.6084 8.63216 31.8404 9.00816C32.0804 9.38416 32.2004 9.84416 32.2004 10.3882C32.2004 10.9882 32.0724 11.5042 31.8164 11.9362C31.5604 12.3682 31.1884 12.7002 30.7004 12.9322C30.2204 13.1642 29.6324 13.2802 28.9364 13.2802C28.4964 13.2802 28.0804 13.2402 27.6884 13.1602C27.2964 13.0802 26.9644 12.9642 26.6924 12.8122V11.6482C26.9804 11.8162 27.3284 11.9522 27.7364 12.0562C28.1524 12.1602 28.5484 12.2122 28.9244 12.2122C29.3324 12.2122 29.6804 12.1522 29.9684 12.0322C30.2644 11.9042 30.4924 11.7162 30.6524 11.4682C30.8204 11.2122 30.9044 10.8922 30.9044 10.5082C30.9044 9.98816 30.7404 9.59216 30.4124 9.32016C30.0924 9.04016 29.5844 8.90016 28.8884 8.90016C28.6644 8.90016 28.4124 8.92016 28.1324 8.96016C27.8604 9.00016 27.6404 9.04016 27.4724 9.08016L26.8844 8.73216L27.2084 4.59216H31.6124V5.72016H28.3124L28.1204 7.96416C28.2564 7.94016 28.4284 7.91616 28.6364 7.89216C28.8444 7.86016 29.0884 7.84416 29.3684 7.84416ZM39.1756 8.86416C39.1756 9.56016 39.1196 10.1802 39.0076 10.7242C38.9036 11.2682 38.7356 11.7322 38.5036 12.1162C38.2796 12.4922 37.9796 12.7802 37.6036 12.9802C37.2356 13.1802 36.7916 13.2802 36.2716 13.2802C35.6156 13.2802 35.0756 13.1042 34.6516 12.7522C34.2276 12.4002 33.9116 11.8962 33.7036 11.2402C33.4956 10.5762 33.3916 9.78416 33.3916 8.86416C33.3916 7.93616 33.4836 7.14416 33.6676 6.48816C33.8596 5.83216 34.1676 5.33216 34.5916 4.98816C35.0156 4.63616 35.5756 4.46016 36.2716 4.46016C36.9276 4.46016 37.4676 4.63616 37.8916 4.98816C38.3236 5.33216 38.6436 5.83216 38.8516 6.48816C39.0676 7.14416 39.1756 7.93616 39.1756 8.86416ZM34.6636 8.86416C34.6636 9.60816 34.7156 10.2282 34.8196 10.7242C34.9236 11.2202 35.0916 11.5922 35.3236 11.8402C35.5636 12.0882 35.8796 12.2122 36.2716 12.2122C36.6636 12.2122 36.9756 12.0922 37.2076 11.8522C37.4476 11.6042 37.6196 11.2322 37.7236 10.7362C37.8356 10.2322 37.8916 9.60816 37.8916 8.86416C37.8916 8.12016 37.8356 7.50416 37.7236 7.01616C37.6196 6.52016 37.4476 6.14816 37.2076 5.90016C36.9756 5.65216 36.6636 5.52816 36.2716 5.52816C35.8796 5.52816 35.5636 5.65216 35.3236 5.90016C35.0916 6.14816 34.9236 6.52016 34.8196 7.01616C34.7156 7.50416 34.6636 8.12016 34.6636 8.86416ZM46.0428 8.86416C46.0428 9.56016 45.9868 10.1802 45.8748 10.7242C45.7708 11.2682 45.6028 11.7322 45.3708 12.1162C45.1468 12.4922 44.8468 12.7802 44.4708 12.9802C44.1028 13.1802 43.6588 13.2802 43.1388 13.2802C42.4828 13.2802 41.9428 13.1042 41.5188 12.7522C41.0948 12.4002 40.7788 11.8962 40.5708 11.2402C40.3628 10.5762 40.2588 9.78416 40.2588 8.86416C40.2588 7.93616 40.3508 7.14416 40.5348 6.48816C40.7268 5.83216 41.0348 5.33216 41.4588 4.98816C41.8828 4.63616 42.4428 4.46016 43.1388 4.46016C43.7948 4.46016 44.3348 4.63616 44.7588 4.98816C45.1908 5.33216 45.5108 5.83216 45.7188 6.48816C45.9348 7.14416 46.0428 7.93616 46.0428 8.86416ZM41.5308 8.86416C41.5308 9.60816 41.5828 10.2282 41.6868 10.7242C41.7908 11.2202 41.9588 11.5922 42.1908 11.8402C42.4308 12.0882 42.7468 12.2122 43.1388 12.2122C43.5308 12.2122 43.8428 12.0922 44.0748 11.8522C44.3148 11.6042 44.4868 11.2322 44.5908 10.7362C44.7028 10.2322 44.7588 9.60816 44.7588 8.86416C44.7588 8.12016 44.7028 7.50416 44.5908 7.01616C44.4868 6.52016 44.3148 6.14816 44.0748 5.90016C43.8428 5.65216 43.5308 5.52816 43.1388 5.52816C42.7468 5.52816 42.4308 5.65216 42.1908 5.90016C41.9588 6.14816 41.7908 6.52016 41.6868 7.01616C41.5828 7.50416 41.5308 8.12016 41.5308 8.86416Z" fill="white"/>
</g>
<defs>
<filter id="filter0_d_3965_15611" x="0" y="0" width="50.043" height="20" filterUnits="userSpaceOnUse" color-interpolation-filters="sRGB">
<feFlood flood-opacity="0" result="BackgroundImageFix"/>
<feColorMatrix in="SourceAlpha" type="matrix" values="0 0 0 0 0 0 0 0 0 0 0 0 0 0 0 0 0 0 127 0" result="hardAlpha"/>
<feOffset dy="2"/>
<feGaussianBlur stdDeviation="2"/>
<feComposite in2="hardAlpha" operator="out"/>
<feColorMatrix type="matrix" values="0 0 0 0 0 0 0 0 0 0 0 0 0 0 0 0 0 0 0.4 0"/>
<feBlend mode="normal" in2="BackgroundImageFix" result="effect1_dropShadow_3965_15611"/>
<feBlend mode="normal" in="SourceGraphic" in2="effect1_dropShadow_3965_15611" result="shape"/>
</filter>
</defs>
</svg>
