<svg width="51" height="20" viewBox="0 0 51 20" fill="none" xmlns="http://www.w3.org/2000/svg">
<g filter="url(#filter0_d_3965_15613)">
<path d="M4 14.0002H16V2.00016H4V14.0002ZM22.1532 12.6082C21.6892 12.5922 21.2492 12.5482 20.8332 12.4762C20.4252 12.4042 20.0812 12.3042 19.8012 12.1762V11.0002C20.0892 11.1362 20.4492 11.2602 20.8812 11.3722C21.3212 11.4762 21.7452 11.5322 22.1532 11.5402V9.29616C21.7372 9.16816 21.3772 9.03216 21.0732 8.88816C20.7772 8.74416 20.5332 8.58816 20.3412 8.42016C20.1572 8.24416 20.0172 8.04416 19.9212 7.82016C19.8332 7.59616 19.7892 7.34016 19.7892 7.05216C19.7892 6.66016 19.8852 6.32416 20.0772 6.04416C20.2772 5.75616 20.5532 5.52816 20.9052 5.36016C21.2652 5.19216 21.6812 5.09216 22.1532 5.06016V4.05216H22.9332V5.04816C23.3652 5.05616 23.7612 5.10416 24.1212 5.19216C24.4812 5.27216 24.8212 5.38016 25.1412 5.51616L24.7452 6.54816C24.4732 6.43616 24.1772 6.34416 23.8572 6.27216C23.5452 6.19216 23.2372 6.14016 22.9332 6.11616V8.32416C23.4292 8.48416 23.8572 8.65216 24.2172 8.82816C24.5852 9.00416 24.8692 9.22416 25.0692 9.48816C25.2692 9.74416 25.3692 10.0842 25.3692 10.5082C25.3692 11.0762 25.1572 11.5402 24.7332 11.9002C24.3172 12.2602 23.7172 12.4802 22.9332 12.5602V13.8562H22.1532V12.6082ZM22.9332 11.4922C23.3492 11.4442 23.6492 11.3442 23.8332 11.1922C24.0252 11.0322 24.1212 10.8282 24.1212 10.5802C24.1212 10.4122 24.0812 10.2682 24.0012 10.1482C23.9292 10.0282 23.8052 9.92416 23.6292 9.83616C23.4612 9.74816 23.2292 9.66016 22.9332 9.57216V11.4922ZM22.1532 6.14016C21.9052 6.15616 21.6972 6.20416 21.5292 6.28416C21.3692 6.35616 21.2452 6.45216 21.1572 6.57216C21.0772 6.69216 21.0372 6.83216 21.0372 6.99216C21.0372 7.16816 21.0732 7.32416 21.1452 7.46016C21.2172 7.58816 21.3332 7.70016 21.4932 7.79616C21.6532 7.88416 21.8732 7.96816 22.1532 8.04816V6.14016ZM32.2964 13.1602H26.5364V12.1762L28.7444 9.93216C29.1764 9.49216 29.5364 9.11216 29.8244 8.79216C30.1124 8.46416 30.3284 8.15216 30.4724 7.85616C30.6164 7.55216 30.6884 7.22416 30.6884 6.87216C30.6884 6.43216 30.5604 6.10416 30.3044 5.88816C30.0484 5.66416 29.7164 5.55216 29.3084 5.55216C28.9164 5.55216 28.5644 5.62816 28.2524 5.78016C27.9404 5.92416 27.6164 6.12816 27.2804 6.39216L26.5964 5.54016C26.8284 5.34016 27.0764 5.16016 27.3404 5.00016C27.6124 4.84016 27.9124 4.71216 28.2404 4.61616C28.5764 4.52016 28.9444 4.47216 29.3444 4.47216C29.8884 4.47216 30.3564 4.56816 30.7484 4.76016C31.1404 4.94416 31.4404 5.20816 31.6484 5.55216C31.8644 5.89616 31.9724 6.30016 31.9724 6.76416C31.9724 7.10816 31.9204 7.43216 31.8164 7.73616C31.7124 8.03216 31.5604 8.32416 31.3604 8.61216C31.1684 8.90016 30.9324 9.19216 30.6524 9.48816C30.3724 9.78416 30.0644 10.0962 29.7284 10.4242L28.1324 11.9722V12.0322H32.2964V13.1602ZM36.2356 7.84416C36.8036 7.84416 37.2996 7.94416 37.7236 8.14416C38.1476 8.34416 38.4756 8.63216 38.7076 9.00816C38.9476 9.38416 39.0676 9.84416 39.0676 10.3882C39.0676 10.9882 38.9396 11.5042 38.6836 11.9362C38.4276 12.3682 38.0556 12.7002 37.5676 12.9322C37.0876 13.1642 36.4996 13.2802 35.8036 13.2802C35.3636 13.2802 34.9476 13.2402 34.5556 13.1602C34.1636 13.0802 33.8316 12.9642 33.5596 12.8122V11.6482C33.8476 11.8162 34.1956 11.9522 34.6036 12.0562C35.0196 12.1602 35.4156 12.2122 35.7916 12.2122C36.1996 12.2122 36.5476 12.1522 36.8356 12.0322C37.1316 11.9042 37.3596 11.7162 37.5196 11.4682C37.6876 11.2122 37.7716 10.8922 37.7716 10.5082C37.7716 9.98816 37.6076 9.59216 37.2796 9.32016C36.9596 9.04016 36.4516 8.90016 35.7556 8.90016C35.5316 8.90016 35.2796 8.92016 34.9996 8.96016C34.7276 9.00016 34.5076 9.04016 34.3396 9.08016L33.7516 8.73216L34.0756 4.59216H38.4796V5.72016H35.1796L34.9876 7.96416C35.1236 7.94016 35.2956 7.91616 35.5036 7.89216C35.7116 7.86016 35.9556 7.84416 36.2356 7.84416ZM46.0428 8.86416C46.0428 9.56016 45.9868 10.1802 45.8748 10.7242C45.7708 11.2682 45.6028 11.7322 45.3708 12.1162C45.1468 12.4922 44.8468 12.7802 44.4708 12.9802C44.1028 13.1802 43.6588 13.2802 43.1388 13.2802C42.4828 13.2802 41.9428 13.1042 41.5188 12.7522C41.0948 12.4002 40.7788 11.8962 40.5708 11.2402C40.3628 10.5762 40.2588 9.78416 40.2588 8.86416C40.2588 7.93616 40.3508 7.14416 40.5348 6.48816C40.7268 5.83216 41.0348 5.33216 41.4588 4.98816C41.8828 4.63616 42.4428 4.46016 43.1388 4.46016C43.7948 4.46016 44.3348 4.63616 44.7588 4.98816C45.1908 5.33216 45.5108 5.83216 45.7188 6.48816C45.9348 7.14416 46.0428 7.93616 46.0428 8.86416ZM41.5308 8.86416C41.5308 9.60816 41.5828 10.2282 41.6868 10.7242C41.7908 11.2202 41.9588 11.5922 42.1908 11.8402C42.4308 12.0882 42.7468 12.2122 43.1388 12.2122C43.5308 12.2122 43.8428 12.0922 44.0748 11.8522C44.3148 11.6042 44.4868 11.2322 44.5908 10.7362C44.7028 10.2322 44.7588 9.60816 44.7588 8.86416C44.7588 8.12016 44.7028 7.50416 44.5908 7.01616C44.4868 6.52016 44.3148 6.14816 44.0748 5.90016C43.8428 5.65216 43.5308 5.52816 43.1388 5.52816C42.7468 5.52816 42.4308 5.65216 42.1908 5.90016C41.9588 6.14816 41.7908 6.52016 41.6868 7.01616C41.5828 7.50416 41.5308 8.12016 41.5308 8.86416Z" fill="white"/>
</g>
<defs>
<filter id="filter0_d_3965_15613" x="0" y="0" width="50.043" height="20" filterUnits="userSpaceOnUse" color-interpolation-filters="sRGB">
<feFlood flood-opacity="0" result="BackgroundImageFix"/>
<feColorMatrix in="SourceAlpha" type="matrix" values="0 0 0 0 0 0 0 0 0 0 0 0 0 0 0 0 0 0 127 0" result="hardAlpha"/>
<feOffset dy="2"/>
<feGaussianBlur stdDeviation="2"/>
<feComposite in2="hardAlpha" operator="out"/>
<feColorMatrix type="matrix" values="0 0 0 0 0 0 0 0 0 0 0 0 0 0 0 0 0 0 0.4 0"/>
<feBlend mode="normal" in2="BackgroundImageFix" result="effect1_dropShadow_3965_15613"/>
<feBlend mode="normal" in="SourceGraphic" in2="effect1_dropShadow_3965_15613" result="shape"/>
</filter>
</defs>
</svg>
