<svg width="25" height="23" viewBox="0 0 25 23" fill="none" xmlns="http://www.w3.org/2000/svg">
<path d="M1 12.7904C1 9.30417 0.999814 7.56129 1.83648 6.30912C2.19869 5.76704 2.66412 5.30162 3.20619 4.9394C4.45836 4.10273 6.20149 4.10273 9.68772 4.10273H14.6523C18.1385 4.10273 19.8816 4.10273 21.1337 4.9394C21.6759 5.30162 22.1413 5.76704 22.5034 6.30912C23.3402 7.56129 23.3403 9.30417 23.3403 12.7904C23.3403 16.2766 23.3403 18.0198 22.5037 19.2719C22.1414 19.8139 21.676 20.2794 21.134 20.6416C19.8818 21.4783 18.1386 21.4783 14.6524 21.4783H9.68791C6.20166 21.4783 4.45854 21.4783 3.20638 20.6416C2.66431 20.2794 2.19887 19.8139 1.83667 19.2719C1.54894 18.8413 1.36015 18.3526 1.2363 17.7549M19.6174 9.06745H18.9969M15.2731 1H9.06745M15.893 12.7908C15.893 14.8472 14.226 16.5142 12.1696 16.5142C10.1132 16.5142 8.44622 14.8472 8.44622 12.7908C8.44622 10.7345 10.1132 9.06745 12.1696 9.06745C14.226 9.06745 15.893 10.7345 15.893 12.7908Z" stroke="white" stroke-width="2" stroke-linecap="round"/>
</svg>
