<svg width="26" height="24" viewBox="0 0 26 24" fill="none" xmlns="http://www.w3.org/2000/svg">
<path d="M11.5604 6.912L10.4686 6.30337L10.4685 6.30343L11.5604 6.912ZM13.486 6.912L14.5778 6.30342L14.5778 6.30337L13.486 6.912ZM13.5968 7.11081L14.6888 6.50254L14.6886 6.50223L13.5968 7.11081ZM13.8742 7.51038L14.6299 6.51472L14.6298 6.51465L13.8742 7.51038ZM14.3236 7.66264L14.5995 6.44347L14.5994 6.44345L14.3236 7.66264ZM14.5388 7.71134L14.2629 8.93051L14.263 8.93052L14.5388 7.71134ZM15.8855 8.31184L14.692 8.6831L14.692 8.68311L15.8855 8.31184ZM15.1339 9.62471L16.0837 10.4373L16.0839 10.4371L15.1339 9.62471ZM14.9871 9.79627L14.0373 8.98367L14.037 8.98402L14.9871 9.79627ZM14.7091 10.1955L13.5157 9.82382L13.5154 9.82483L14.7091 10.1955ZM14.7095 10.6892L13.4653 10.8097L13.4653 10.8099L14.7095 10.6892ZM14.7317 10.918L15.9759 10.7976L15.9758 10.7973L14.7317 10.918ZM14.6013 12.4419L15.3567 13.4377L15.3572 13.4374L14.6013 12.4419ZM13.1739 12.1006L12.651 13.236L12.6512 13.2361L13.1739 12.1006ZM12.9725 12.0079L13.4954 10.8725L13.4951 10.8724L12.9725 12.0079ZM12.0738 12.0079L11.5512 10.8724L11.551 10.8725L12.0738 12.0079ZM11.8724 12.1006L12.3952 13.2361L12.3953 13.236L11.8724 12.1006ZM10.4451 12.4419L9.68904 13.4373L9.68961 13.4377L10.4451 12.4419ZM10.3146 10.918L9.07049 10.7973L9.07047 10.7975L10.3146 10.918ZM10.3369 10.6892L11.581 10.8099L11.581 10.8097L10.3369 10.6892ZM10.3372 10.1955L11.531 9.82482L11.5307 9.82382L10.3372 10.1955ZM10.0592 9.79627L11.0092 8.98386L11.0092 8.98385L10.0592 9.79627ZM9.91248 9.62471L8.96248 10.4371L8.96249 10.4371L9.91248 9.62471ZM9.16082 8.31184L10.3544 8.68303L10.3544 8.68303L9.16082 8.31184ZM10.5075 7.71134L10.7834 8.93052L10.7834 8.93051L10.5075 7.71134ZM10.7227 7.66264L10.4469 6.44345L10.4468 6.44347L10.7227 7.66264ZM11.1722 7.51038L10.4165 6.51466L10.4164 6.51471L11.1722 7.51038ZM11.4496 7.11081L10.3577 6.50223L10.3576 6.50254L11.4496 7.11081ZM12.5225 17.1072L13.4217 16.2389L12.5226 15.3078L11.6234 16.2388L12.5225 17.1072ZM8.27116 21.5091L7.37204 20.6407L7.37199 20.6408L8.27116 21.5091ZM7.10008 22.5638L6.61328 21.4125L6.613 21.4126L7.10008 22.5638ZM5.55192 22.0585L4.46642 22.6784L4.46647 22.6785L5.55192 22.0585ZM5.28952 20.536L4.04555 20.6587L4.04555 20.6587L5.28952 20.536ZM5.14551 19.6078L6.32254 19.1869L6.32254 19.1869L5.14551 19.6078ZM4.20465 18.6336L4.65194 17.4664L4.65189 17.4664L4.20465 18.6336ZM3.30824 18.4845L3.43991 17.2414L3.43966 17.2414L3.30824 18.4845ZM1.83773 18.2128L2.4905 17.1468L2.4903 17.1467L1.83773 18.2128ZM1.34968 16.6098L2.51241 17.0687L2.51241 17.0687L1.34968 16.6098ZM2.3683 15.3973L1.46918 14.5289L1.46914 14.5289L2.3683 15.3973ZM16.7732 21.5091L15.874 22.3774L15.874 22.3774L16.7732 21.5091ZM17.9442 22.5638L18.4312 21.4126L18.431 21.4125L17.9442 22.5638ZM19.4924 22.0585L20.5778 22.6784L20.5779 22.6783L19.4924 22.0585ZM19.7548 20.536L20.9987 20.6587L20.9987 20.6586L19.7548 20.536ZM19.8987 19.6078L18.7218 19.1868L18.7216 19.1872L19.8987 19.6078ZM20.8396 18.6336L20.3925 17.4663L20.3924 17.4664L20.8396 18.6336ZM21.736 18.4845L21.6046 17.2414L21.6044 17.2414L21.736 18.4845ZM23.2065 18.2128L22.554 17.1466L22.5538 17.1468L23.2065 18.2128ZM23.6946 16.6098L24.8574 16.1511L24.8573 16.1508L23.6946 16.6098ZM22.6759 15.3973L21.7768 16.2656L21.7768 16.2657L22.6759 15.3973ZM6.35592 6.67152C6.61277 6.03073 6.30153 5.30304 5.66074 5.04618C5.01995 4.78932 4.29226 5.10057 4.0354 5.74136L5.19566 6.20644L6.35592 6.67152ZM9.12339 0.653367C8.4826 0.910221 8.17135 1.63791 8.42821 2.2787C8.68506 2.9195 9.41275 3.23074 10.0535 2.97389L9.58847 1.81363L9.12339 0.653367ZM11.5604 6.912L12.6522 7.52064C12.7617 7.32423 12.8468 7.17178 12.922 7.04466C12.9985 6.91555 13.046 6.84507 13.0747 6.80755C13.1064 6.76621 13.0801 6.81207 12.9928 6.87044C12.9443 6.90289 12.8764 6.93961 12.79 6.96739C12.7022 6.99564 12.6114 7.00937 12.5232 7.00937V5.75937V4.50937C11.7636 4.50937 11.3065 5.00469 11.0899 5.28751C10.874 5.56949 10.6624 5.95569 10.4686 6.30337L11.5604 6.912ZM12.5232 5.75937V7.00937C12.435 7.00937 12.3442 6.99564 12.2563 6.96739C12.1699 6.93961 12.1021 6.90289 12.0535 6.87044C11.9663 6.81207 11.94 6.76621 11.9716 6.80755C12.0003 6.84507 12.0478 6.91555 12.1243 7.04466C12.1996 7.17178 12.2846 7.32423 12.3941 7.52064L13.486 6.912L14.5778 6.30337C14.384 5.95569 14.1724 5.56949 13.9564 5.28751C13.7398 5.00469 13.2827 4.50937 12.5232 4.50937V5.75937ZM13.486 6.912L12.3941 7.52058L12.5049 7.71939L13.5968 7.11081L14.6886 6.50223L14.5778 6.30342L13.486 6.912ZM13.5968 7.11081L12.5047 7.71908C12.5722 7.84022 12.7656 8.23828 13.1185 8.50611L13.8742 7.51038L14.6298 6.51465C14.6533 6.53243 14.6751 6.55098 14.6952 6.56984C14.7152 6.5886 14.732 6.60628 14.7457 6.62181C14.7723 6.65198 14.7861 6.67294 14.7864 6.67335C14.7867 6.67389 14.7848 6.67104 14.7802 6.66345C14.7756 6.65586 14.7692 6.64517 14.7605 6.63012C14.7519 6.61507 14.7418 6.59737 14.7296 6.57569C14.7174 6.55388 14.7042 6.53023 14.6888 6.50254L13.5968 7.11081ZM13.8742 7.51038L13.1184 8.50605C13.4789 8.77967 13.9187 8.85262 14.0478 8.88183L14.3236 7.66264L14.5994 6.44345C14.5375 6.42944 14.4966 6.42015 14.4628 6.41191C14.4293 6.40376 14.4195 6.40063 14.4218 6.40135C14.4254 6.40249 14.4523 6.41106 14.4914 6.42979C14.5334 6.4499 14.5813 6.47781 14.6299 6.51472L13.8742 7.51038ZM14.3236 7.66264L14.0477 8.88181L14.2629 8.93051L14.5388 7.71134L14.8147 6.49217L14.5995 6.44347L14.3236 7.66264ZM14.5388 7.71134L14.263 8.93052C14.476 8.97873 14.6395 9.01581 14.7767 9.05089C14.916 9.08649 14.9905 9.11075 15.0287 9.12581C15.0697 9.14195 15.0165 9.12762 14.9367 9.05922C14.8931 9.02181 14.8429 8.96946 14.7963 8.90026C14.7492 8.83028 14.7147 8.75608 14.692 8.6831L15.8855 8.31184L17.0791 7.94058C16.8623 7.24354 16.3 6.93968 15.9453 6.79988C15.614 6.66935 15.1881 6.57665 14.8147 6.49216L14.5388 7.71134ZM15.8855 8.31184L14.692 8.68311C14.6419 8.52222 14.6486 8.36794 14.6769 8.25502C14.6996 8.16401 14.7288 8.12984 14.7016 8.17296C14.6761 8.2135 14.6267 8.28229 14.5333 8.39761C14.4411 8.51141 14.3289 8.64277 14.1838 8.81236L15.1339 9.62471L16.0839 10.4371C16.3406 10.1369 16.6274 9.80648 16.8173 9.50489C17.0156 9.18982 17.2917 8.6241 17.0791 7.94057L15.8855 8.31184ZM15.1339 9.62471L14.1841 8.81212L14.0373 8.98367L14.9871 9.79627L15.937 10.6089L16.0837 10.4373L15.1339 9.62471ZM14.9871 9.79627L14.037 8.98402C13.9435 9.09337 13.646 9.40528 13.5157 9.82382L14.7091 10.1955L15.9026 10.5671C15.8946 10.5928 15.8854 10.6177 15.8753 10.6415C15.8652 10.6652 15.8551 10.6859 15.8457 10.7033C15.8273 10.7374 15.813 10.757 15.8125 10.7577C15.8121 10.7582 15.814 10.7555 15.8194 10.7487C15.8248 10.7419 15.8325 10.7324 15.8435 10.7192C15.8544 10.7059 15.8674 10.6905 15.8833 10.6718C15.8994 10.6528 15.9168 10.6325 15.9373 10.6085L14.9871 9.79627ZM14.7091 10.1955L13.5154 9.82483C13.3871 10.2381 13.451 10.6624 13.4653 10.8097L14.7095 10.6892L15.9537 10.5687C15.9506 10.5368 15.9479 10.5095 15.9456 10.4842C15.9432 10.4591 15.9414 10.4384 15.9399 10.4206C15.9385 10.4028 15.9376 10.3899 15.937 10.3804C15.9367 10.3757 15.9366 10.3723 15.9365 10.3699C15.9364 10.3676 15.9364 10.3665 15.9364 10.3665C15.9364 10.3665 15.9364 10.3678 15.9364 10.3702C15.9364 10.3727 15.9363 10.3764 15.9361 10.3813C15.9358 10.3911 15.9349 10.4058 15.9329 10.4245C15.9308 10.4433 15.9275 10.4655 15.9224 10.4901C15.9174 10.515 15.9109 10.5404 15.9029 10.5661L14.7091 10.1955ZM14.7095 10.6892L13.4653 10.8099L13.4875 11.0388L14.7317 10.918L15.9758 10.7973L15.9536 10.5685L14.7095 10.6892ZM14.7317 10.918L13.4875 11.0385C13.5094 11.2645 13.5264 11.4407 13.537 11.5905C13.5478 11.7423 13.5493 11.8309 13.547 11.8824C13.5445 11.938 13.5395 11.8946 13.5724 11.8069C13.6135 11.697 13.6993 11.5572 13.8453 11.4463L14.6013 12.4419L15.3572 13.4374C15.9404 12.9945 16.0286 12.3513 16.0445 11.9935C16.0603 11.6379 16.0148 11.1997 15.9759 10.7976L14.7317 10.918ZM14.6013 12.4419L13.8458 11.446C13.9122 11.3956 13.9902 11.3522 14.0768 11.3213C14.1622 11.2907 14.2399 11.2781 14.3016 11.2743C14.4139 11.2674 14.4697 11.2901 14.4267 11.2778C14.3876 11.2666 14.3136 11.2404 14.1804 11.1835C14.0494 11.1275 13.8961 11.057 13.6967 10.9652L13.1739 12.1006L12.6512 13.2361C13.0007 13.397 13.3967 13.5833 13.7382 13.6811C14.0959 13.7836 14.7531 13.8956 15.3567 13.4377L14.6013 12.4419ZM13.1739 12.1006L13.6968 10.9653L13.4954 10.8725L12.9725 12.0079L12.4496 13.1432L12.651 13.236L13.1739 12.1006ZM12.9725 12.0079L13.4951 10.8724C13.3788 10.8188 12.9787 10.605 12.5232 10.605V11.855V13.105C12.4588 13.105 12.4015 13.0977 12.3549 13.0879C12.3115 13.0788 12.2845 13.069 12.2813 13.0678C12.2792 13.0671 12.2891 13.0707 12.3211 13.0847C12.3533 13.099 12.3918 13.1166 12.4498 13.1434L12.9725 12.0079ZM12.5232 11.855V10.605C12.0676 10.605 11.6675 10.8188 11.5512 10.8724L12.0738 12.0079L12.5965 13.1434C12.6545 13.1166 12.693 13.099 12.7253 13.0847C12.7572 13.0707 12.7671 13.0671 12.7651 13.0678C12.7619 13.069 12.7348 13.0788 12.6915 13.0879C12.6449 13.0977 12.5875 13.105 12.5232 13.105V11.855ZM12.0738 12.0079L11.551 10.8725L11.3495 10.9653L11.8724 12.1006L12.3953 13.236L12.5967 13.1432L12.0738 12.0079ZM11.8724 12.1006L11.3496 10.9652C11.1502 11.057 10.9969 11.1275 10.8659 11.1835C10.7327 11.2404 10.6587 11.2666 10.6196 11.2778C10.5766 11.2901 10.6324 11.2674 10.7447 11.2743C10.8065 11.2781 10.8841 11.2907 10.9696 11.3213C11.0561 11.3522 11.1341 11.3956 11.2005 11.446L10.4451 12.4419L9.68961 13.4377C10.2932 13.8956 10.9505 13.7836 11.3081 13.6811C11.6496 13.5833 12.0456 13.397 12.3952 13.2361L11.8724 12.1006ZM10.4451 12.4419L11.2011 11.4464C11.3471 11.5573 11.4329 11.697 11.474 11.8068C11.5069 11.8946 11.5018 11.9379 11.4994 11.8824C11.4971 11.8309 11.4985 11.7423 11.5093 11.5905C11.5199 11.4407 11.5369 11.2646 11.5588 11.0386L10.3146 10.918L9.07047 10.7975C9.0315 11.1997 8.98599 11.6379 9.00183 11.9936C9.01777 12.3514 9.10597 12.9945 9.68904 13.4373L10.4451 12.4419ZM10.3146 10.918L11.5588 11.0388L11.581 10.8099L10.3369 10.6892L9.0927 10.5685L9.07049 10.7973L10.3146 10.918ZM10.3369 10.6892L11.581 10.8097C11.5953 10.6624 11.6593 10.2381 11.531 9.82482L10.3372 10.1955L9.14341 10.5661C9.13544 10.5404 9.12896 10.515 9.12389 10.4901C9.11884 10.4655 9.11557 10.4433 9.11348 10.4245C9.1114 10.4058 9.11056 10.3911 9.11021 10.3813C9.11003 10.3764 9.10998 10.3727 9.10997 10.3702C9.10995 10.3678 9.10998 10.3665 9.10998 10.3665C9.10998 10.3665 9.10996 10.3676 9.10986 10.3699C9.10976 10.3723 9.1096 10.3757 9.10933 10.3804C9.10877 10.3898 9.10787 10.4028 9.10642 10.4206C9.10497 10.4384 9.10312 10.4591 9.10077 10.4842C9.09841 10.5095 9.09576 10.5368 9.09267 10.5687L10.3369 10.6892ZM10.3372 10.1955L11.5307 9.82382C11.4003 9.40525 11.1029 9.0935 11.0092 8.98386L10.0592 9.79627L9.10919 10.6087C9.12965 10.6326 9.14708 10.653 9.16312 10.6719C9.17906 10.6906 9.192 10.706 9.20295 10.7192C9.21388 10.7324 9.22154 10.7419 9.22693 10.7487C9.2323 10.7556 9.23423 10.7582 9.23381 10.7577C9.2333 10.757 9.219 10.7374 9.20064 10.7033C9.19124 10.6858 9.18106 10.6651 9.171 10.6415C9.1609 10.6177 9.15171 10.5928 9.14372 10.5671L10.3372 10.1955ZM10.0592 9.79627L11.0092 8.98385L10.8625 8.81229L9.91248 9.62471L8.96249 10.4371L9.1092 10.6087L10.0592 9.79627ZM9.91248 9.62471L10.8625 8.8123C10.7175 8.64274 10.6053 8.51138 10.5131 8.3976C10.4196 8.2823 10.3702 8.21352 10.3447 8.173C10.3176 8.1299 10.3468 8.16407 10.3695 8.25507C10.3977 8.36797 10.4045 8.5222 10.3544 8.68303L9.16082 8.31184L7.96721 7.94065C7.75468 8.62406 8.03065 9.1897 8.22904 9.50485C8.41893 9.80649 8.70578 10.1369 8.96248 10.4371L9.91248 9.62471ZM9.16082 8.31184L10.3544 8.68303C10.3317 8.756 10.2972 8.83019 10.2501 8.90018C10.2035 8.9694 10.1533 9.02175 10.1097 9.05917C10.0299 9.1276 9.9767 9.14193 10.0176 9.1258C10.0558 9.11074 10.1303 9.08649 10.2696 9.05089C10.4069 9.01581 10.5703 8.97873 10.7834 8.93052L10.5075 7.71134L10.2317 6.49216C9.85822 6.57665 9.4323 6.66935 9.10104 6.79989C8.74623 6.93972 8.18398 7.24361 7.96721 7.94065L9.16082 8.31184ZM10.5075 7.71134L10.7834 8.93051L10.9986 8.88181L10.7227 7.66264L10.4468 6.44347L10.2316 6.49217L10.5075 7.71134ZM10.7227 7.66264L10.9985 8.88183C11.1276 8.85262 11.5674 8.77967 11.9279 8.50606L11.1722 7.51038L10.4164 6.51471C10.465 6.47781 10.513 6.4499 10.5549 6.42979C10.594 6.41106 10.6209 6.40249 10.6245 6.40135C10.6268 6.40063 10.6171 6.40376 10.5836 6.41191C10.5497 6.42015 10.5088 6.42944 10.4469 6.44345L10.7227 7.66264ZM11.1722 7.51038L11.9278 8.50611C12.2807 8.23828 12.4741 7.84023 12.5416 7.71908L11.4496 7.11081L10.3576 6.50254C10.3421 6.53023 10.3289 6.55388 10.3167 6.57569C10.3045 6.59736 10.2945 6.61507 10.2858 6.63012C10.2771 6.64517 10.2708 6.65585 10.2661 6.66345C10.2615 6.67104 10.2596 6.67388 10.2599 6.67335C10.2602 6.67294 10.274 6.65198 10.3006 6.62181C10.3143 6.60628 10.3311 6.5886 10.3511 6.56984C10.3712 6.55098 10.3931 6.53243 10.4165 6.51466L11.1722 7.51038ZM11.4496 7.11081L12.5414 7.71938L12.6522 7.52058L11.5604 6.912L10.4685 6.30343L10.3577 6.50223L11.4496 7.11081ZM12.5225 17.1072L11.6234 16.2388L7.37204 20.6407L8.27116 21.5091L9.17029 22.3775L13.4217 17.9756L12.5225 17.1072ZM8.27116 21.5091L7.37199 20.6408C7.05739 20.9666 6.85694 21.1735 6.7035 21.3159C6.53752 21.47 6.52999 21.4477 6.61328 21.4125L7.10008 22.5638L7.58688 23.7151C7.92797 23.5709 8.20156 23.3364 8.40445 23.1481C8.61989 22.9481 8.87607 22.6822 9.17033 22.3775L8.27116 21.5091ZM7.10008 22.5638L6.613 21.4126C6.60215 21.4172 6.59746 21.4171 6.59867 21.417C6.59949 21.417 6.60338 21.417 6.60941 21.419C6.61548 21.4209 6.62226 21.4244 6.62849 21.4295C6.63512 21.4349 6.63771 21.4392 6.63737 21.4386L5.55192 22.0585L4.46647 22.6785C5.10085 23.7892 6.43796 24.2012 7.58716 23.715L7.10008 22.5638ZM5.55192 22.0585L6.63742 21.4387C6.68927 21.5295 6.67076 21.5554 6.63659 21.3366C6.60527 21.1361 6.57724 20.8568 6.53348 20.4132L5.28952 20.536L4.04555 20.6587C4.08632 21.0719 4.12167 21.4351 4.16652 21.7223C4.20852 21.9912 4.27895 22.3501 4.46642 22.6784L5.55192 22.0585ZM5.28952 20.536L6.53348 20.4132C6.49274 20.0003 6.45955 19.5701 6.32254 19.1869L5.14551 19.6078L3.96848 20.0286C3.96528 20.0197 3.97445 20.0395 3.98945 20.144C4.0056 20.2566 4.02063 20.406 4.04555 20.6587L5.28952 20.536ZM5.14551 19.6078L6.32254 19.1869C6.04145 18.4008 5.44083 17.7687 4.65194 17.4664L4.20465 18.6336L3.75735 19.8008C3.84447 19.8342 3.92528 19.9078 3.96848 20.0286L5.14551 19.6078ZM4.20465 18.6336L4.65189 17.4664C4.26588 17.3185 3.83236 17.283 3.43991 17.2414L3.30824 18.4845L3.17657 19.7275C3.42174 19.7535 3.56283 19.7687 3.66822 19.785C3.76457 19.7998 3.77527 19.8077 3.7574 19.8009L4.20465 18.6336ZM3.30824 18.4845L3.43966 17.2414C3.00973 17.1959 2.74432 17.1673 2.55508 17.1357C2.34871 17.1011 2.38931 17.0848 2.4905 17.1468L1.83773 18.2128L1.18495 19.2788C1.51552 19.4812 1.87766 19.557 2.14234 19.6014C2.42416 19.6485 2.77932 19.6855 3.17682 19.7275L3.30824 18.4845ZM1.83773 18.2128L2.4903 17.1467C2.49652 17.1505 2.50158 17.1555 2.50439 17.1592C2.50676 17.1623 2.50541 17.1617 2.50349 17.1554C2.49956 17.1425 2.49543 17.1117 2.51241 17.0687L1.34968 16.6098L0.186949 16.151C-0.253829 17.2679 0.0948089 18.6116 1.18516 19.2789L1.83773 18.2128ZM1.34968 16.6098L2.51241 17.0687C2.48374 17.1414 2.46811 17.1279 2.6151 16.9582C2.75295 16.799 2.95293 16.5913 3.26747 16.2656L2.3683 15.3973L1.46914 14.5289C1.17482 14.8337 0.91816 15.0988 0.725251 15.3216C0.541472 15.5338 0.320966 15.8114 0.186947 16.151L1.34968 16.6098ZM2.3683 15.3973L3.26742 16.2656L6.04463 13.3901L5.14551 12.5217L4.24639 11.6534L1.46918 14.5289L2.3683 15.3973ZM12.5225 17.1072L11.6233 17.9755L15.874 22.3774L16.7732 21.5091L17.6724 20.6408L13.4217 16.2389L12.5225 17.1072ZM16.7732 21.5091L15.874 22.3774C16.1682 22.6821 16.4244 22.948 16.6398 23.148C16.8427 23.3364 17.1163 23.5709 17.4574 23.7151L17.9442 22.5638L18.431 21.4125C18.5143 21.4477 18.5068 21.4701 18.3408 21.316C18.1874 21.1735 17.987 20.9666 17.6724 20.6408L16.7732 21.5091ZM17.9442 22.5638L17.4571 23.715C18.6063 24.2012 19.9435 23.7893 20.5778 22.6784L19.4924 22.0585L18.4069 21.4387C18.4065 21.4393 18.4091 21.4349 18.4158 21.4295C18.422 21.4244 18.4288 21.4209 18.4349 21.419C18.4409 21.417 18.4448 21.417 18.4456 21.417C18.4468 21.4171 18.4421 21.4172 18.4312 21.4126L17.9442 22.5638ZM19.4924 22.0585L20.5779 22.6783C20.7653 22.35 20.8357 21.9913 20.8777 21.7223C20.9226 21.4351 20.958 21.0719 20.9987 20.6587L19.7548 20.536L18.5108 20.4132C18.467 20.8567 18.439 21.136 18.4077 21.3366C18.3735 21.5554 18.355 21.5295 18.4068 21.4388L19.4924 22.0585ZM19.7548 20.536L20.9987 20.6586C21.0236 20.406 21.0387 20.2565 21.0548 20.1439C21.0698 20.0394 21.079 20.0195 21.0759 20.0283L19.8987 19.6078L18.7216 19.1872C18.5847 19.5703 18.5515 20.0001 18.5108 20.4133L19.7548 20.536ZM19.8987 19.6078L21.0757 20.0288C21.119 19.9077 21.1998 19.8342 21.2869 19.8009L20.8396 18.6336L20.3924 17.4664C19.6033 17.7687 19.0029 18.4008 18.7218 19.1868L19.8987 19.6078ZM20.8396 18.6336L21.2868 19.8009C21.269 19.8077 21.2798 19.7998 21.3761 19.785C21.4815 19.7687 21.6226 19.7535 21.8677 19.7275L21.736 18.4845L21.6044 17.2414C21.2119 17.283 20.7785 17.3185 20.3925 17.4663L20.8396 18.6336ZM21.736 18.4845L21.8675 19.7275C22.2649 19.6855 22.6201 19.6485 22.9019 19.6014C23.1666 19.557 23.5287 19.4812 23.8593 19.2788L23.2065 18.2128L22.5538 17.1468C22.655 17.0848 22.6955 17.1011 22.4892 17.1357C22.2999 17.1673 22.0345 17.1959 21.6046 17.2414L21.736 18.4845ZM23.2065 18.2128L23.8591 19.279C24.9496 18.6116 25.298 17.2679 24.8574 16.1511L23.6946 16.6098L22.5319 17.0686C22.5489 17.1117 22.5447 17.1425 22.5408 17.1554C22.5389 17.1617 22.5375 17.1623 22.5399 17.1591C22.5427 17.1554 22.5478 17.1504 22.554 17.1466L23.2065 18.2128ZM23.6946 16.6098L24.8573 16.1508C24.7233 15.8113 24.5029 15.5338 24.319 15.3216C24.1261 15.0988 23.8695 14.8337 23.575 14.5289L22.6759 15.3973L21.7768 16.2657C22.0914 16.5913 22.2914 16.799 22.4292 16.9582C22.5761 17.1279 22.5606 17.1414 22.532 17.0689L23.6946 16.6098ZM22.6759 15.3973L23.5751 14.5289L20.7978 11.6534L19.8987 12.5217L18.9996 13.3901L21.7768 16.2656L22.6759 15.3973ZM5.19566 6.20644L4.0354 5.74136C3.61351 6.79385 3.38203 7.94182 3.38203 9.14079H4.63203H5.88203C5.88203 8.26576 6.05061 7.43318 6.35592 6.67152L5.19566 6.20644ZM4.63203 9.14079H3.38203C3.38203 14.1891 7.4745 18.2816 12.5228 18.2816V17.0316V15.7816C8.85521 15.7816 5.88203 12.8084 5.88203 9.14079H4.63203ZM12.5228 17.0316V18.2816C17.5711 18.2816 21.6636 14.1891 21.6636 9.14079H20.4136H19.1636C19.1636 12.8084 16.1904 15.7816 12.5228 15.7816V17.0316ZM20.4136 9.14079H21.6636C21.6636 4.09247 17.5711 0 12.5228 0V1.25V2.5C16.1904 2.5 19.1636 5.47318 19.1636 9.14079H20.4136ZM12.5228 1.25V0C11.3239 0 10.1759 0.231484 9.12339 0.653367L9.58847 1.81363L10.0535 2.97389C10.8152 2.66858 11.6478 2.5 12.5228 2.5V1.25Z" fill="white"/>
</svg>
