<svg width="26" height="26" viewBox="0 0 26 26" fill="none" xmlns="http://www.w3.org/2000/svg">
<path d="M7.20962 24.6448C7.04423 24.5616 6.87308 24.5366 6.72692 24.5741L4.10769 25.2765C3.14231 25.5346 2.14615 25.264 1.43846 24.5616C0.736538 23.8544 0.469231 22.8568 0.726923 21.8963L1.425 19.2767C1.46346 19.131 1.43846 18.9608 1.35962 18.7902C0.457692 16.9816 0 15.0355 0 13.0024C0 9.53042 1.35192 6.26611 3.80769 3.80899C6.26154 1.35572 9.52692 0 12.9981 0C15.2846 0 17.5346 0.602862 19.5019 1.74224C20.0923 2.0831 20.2923 2.83595 19.95 3.42199C19.6096 4.01283 18.8577 4.21234 18.2712 3.87149C16.6731 2.95229 14.8519 2.46193 12.9981 2.46193C10.1827 2.46193 7.53846 3.55948 5.54615 5.55124C3.55962 7.53866 2.46154 10.1871 2.46154 13.0024C2.46154 14.6528 2.83077 16.2287 3.55962 17.6926C3.91154 18.3993 4 19.1853 3.80385 19.9127L3.10577 22.5323C3.06923 22.6694 3.12692 22.765 3.18077 22.8193C3.23462 22.8775 3.33462 22.9357 3.47115 22.8982L6.09231 22.1953C6.81538 22.0045 7.6 22.0915 8.30769 22.441C9.77115 23.1684 11.3519 23.5386 12.9981 23.5386C18.8115 23.5386 23.5385 18.8108 23.5385 13.0024C23.5385 11.1477 23.0519 9.32658 22.1288 7.73385C21.7885 7.14349 21.9923 6.39111 22.5788 6.05026C23.1692 5.71325 23.9212 5.91276 24.2615 6.49928C25.4019 8.46988 26 10.7155 26 13.0024C26 16.4744 24.65 19.7382 22.1923 22.1953C19.7385 24.6486 16.475 26 12.9981 26C10.9692 26 9.01923 25.5471 7.20962 24.6448ZM8.29038 16.5864C7.61346 16.5864 7.05962 16.0335 7.05962 15.3557C7.05962 14.6778 7.61346 14.125 8.29038 14.125H14.7654C15.4481 14.125 15.9962 14.6778 15.9962 15.3557C15.9962 16.0335 15.4481 16.5864 14.7654 16.5864H8.29038ZM8.29038 12.4659C7.61346 12.4659 7.05962 11.9169 7.05962 11.2352C7.05962 10.5573 7.61346 10.0044 8.29038 10.0044H17.7096C18.3865 10.0044 18.9404 10.5573 18.9404 11.2352C18.9404 11.9169 18.3865 12.4659 17.7096 12.4659H8.29038Z" fill="white"/>
</svg>
