<svg width="26" height="26" viewBox="0 0 26 26" fill="none" xmlns="http://www.w3.org/2000/svg">
<path d="M12.6983 8.36426C10.2002 8.36426 8.15625 10.4312 8.15625 12.9575C8.15625 15.4838 10.2002 17.5507 12.6983 17.5507C15.1964 17.5507 17.2403 15.4838 17.2403 12.9575C17.2403 10.4312 15.1964 8.36426 12.6983 8.36426ZM12.6983 16.0196C11.0329 16.0196 9.67026 14.6417 9.67026 12.9575C9.67026 11.2733 11.0329 9.89534 12.6983 9.89534C14.3637 9.89534 15.7263 11.2733 15.7263 12.9575C15.7263 14.6417 14.3637 16.0196 12.6983 16.0196Z" fill="white" stroke="white" stroke-linecap="round"/>
<path d="M12.698 19.6201C9.87811 19.6201 7.17181 20.8067 5.24145 22.8928L4.73047 23.4478L5.82813 24.5004L6.33911 23.9454C8.00452 22.1464 10.2566 21.1512 12.698 21.1512C15.1393 21.1512 17.3914 22.1464 19.0568 23.9454L19.5678 24.5004L20.6655 23.4478L20.1545 22.8928C18.2241 20.8258 15.5178 19.6201 12.698 19.6201Z" fill="white" stroke="white" stroke-linecap="round"/>
<path d="M18.9453 9.49512V11.0262C20.7243 11.0262 22.3708 11.7535 23.6009 13.074L24.6986 12.0214C23.2224 10.4138 21.1217 9.49512 18.9453 9.49512Z" fill="white" stroke="white" stroke-linecap="round"/>
<path d="M22.5575 4.15545C22.5575 2.14591 20.93 0.5 18.9428 0.5C16.9557 0.5 15.3281 2.14591 15.3281 4.15545C15.3281 6.16499 16.9557 7.81089 18.9428 7.81089C20.93 7.81089 22.5575 6.16499 22.5575 4.15545ZM16.8421 4.15545C16.8421 2.988 17.7884 2.03108 18.9428 2.03108C20.0973 2.03108 21.0435 2.988 21.0435 4.15545C21.0435 5.32289 20.0973 6.27982 18.9428 6.27982C17.7884 6.27982 16.8421 5.32289 16.8421 4.15545Z" fill="white" stroke="white" stroke-linecap="round"/>
<path d="M6.45247 9.49512C4.27607 9.49512 2.17538 10.4138 0.699219 12.0214L1.79688 13.074C3.00809 11.7535 4.6735 11.0262 6.45247 11.0262V9.49512Z" fill="white" stroke="white" stroke-linecap="round"/>
<path d="M10.0693 4.15545C10.0693 2.14591 8.44169 0.5 6.45455 0.5C4.46741 0.5 2.83984 2.14591 2.83984 4.15545C2.83984 6.16499 4.46741 7.81089 6.45455 7.81089C8.44169 7.81089 10.0693 6.16499 10.0693 4.15545ZM6.45455 6.27982C5.30011 6.27982 4.35386 5.32289 4.35386 4.15545C4.35386 2.988 5.30011 2.03108 6.45455 2.03108C7.60899 2.03108 8.55524 2.988 8.55524 4.15545C8.55524 5.32289 7.60899 6.27982 6.45455 6.27982Z" fill="white" stroke="white" stroke-linecap="round"/>
</svg>
