<svg width="18" height="18" viewBox="0 0 18 18" fill="none" xmlns="http://www.w3.org/2000/svg">
<path d="M9 0C4.02978 0 0 4.02978 0 9C0 13.9708 4.02978 18 9 18C13.9702 18 18 13.9708 18 9C18 4.02978 13.9702 0 9 0ZM9 16.3125C4.968 16.3125 1.6875 13.032 1.6875 9C1.6875 4.96803 4.96804 1.6875 9 1.6875C13.0325 1.6875 16.3125 4.96804 16.3125 9C16.3125 13.032 13.0325 16.3125 9 16.3125Z" fill="#F8AC00"/>
<path d="M9.0013 3.05273C5.72231 3.05273 3.05469 5.72036 3.05469 8.99935C3.05469 12.2783 5.72231 14.9459 9.0013 14.9459C12.2803 14.9459 14.9479 12.2783 14.9479 8.99935C14.9479 5.72036 12.2803 3.05273 9.0013 3.05273ZM9.0013 14.4054C6.02059 14.4054 3.59529 11.98 3.59529 8.99935C3.59529 6.01864 6.02059 3.59334 9.0013 3.59334C11.9825 3.59334 14.4073 6.01864 14.4073 8.99935C14.4073 11.98 11.9825 14.4054 9.0013 14.4054Z" fill="#F8AC00"/>
<path d="M9.23259 5.7998H7.26697C6.95328 5.7998 6.69922 6.05385 6.69922 6.36693V12.1612C6.69922 12.475 6.95328 12.729 7.26697 12.729H7.55204C7.86574 12.729 8.11978 12.475 8.11978 12.1612V10.5296H9.23259C10.7205 10.5296 11.9317 9.46924 11.9317 8.165C11.9317 6.86073 10.7205 5.7998 9.23259 5.7998ZM9.23259 9.28501H8.11978V7.04445H9.23259C9.9375 7.04445 10.5106 7.54718 10.5106 8.165C10.5106 8.78226 9.9375 9.28501 9.23259 9.28501Z" fill="#F8AC00"/>
</svg>
