<svg width="26" height="24" viewBox="0 0 26 24" fill="none" xmlns="http://www.w3.org/2000/svg">
<path d="M17.1397 19.6569L10.1934 23.3262C10.1934 23.3262 9.76301 23.6655 9.31932 23.6343C8.87563 23.6032 8.41865 23.2015 8.41865 23.2015L7.03836 22.4438L0.970532 19.113C0.970532 19.113 0.439023 18.8486 0.19737 18.3864C-0.0442832 17.9241 0.00392018 17.264 0.00392018 17.264V2.08838C0.00392018 1.95456 0.0233767 1.8255 0.0599551 1.70356C-0.0311016 1.39793 -0.0147581 1.05745 0.132333 0.746273C0.443638 0.0898697 1.22112 -0.184885 1.86397 0.131043L9.40221 3.82876L16.2079 0.325036C16.2079 0.325036 16.7017 0.0231331 17.1788 0.0280858C17.6559 0.0330385 18.1162 0.344847 18.1162 0.344847L25.1622 4.07514C25.1622 4.07514 25.61 4.29983 25.8228 4.57605C26.0356 4.85226 25.9636 5.45739 25.9636 5.45739V21.7649C25.9636 21.7649 26.1817 22.8703 25.55 23.382C24.9183 23.8936 23.8425 23.2981 23.8425 23.2981L17.1397 19.6569ZM10.6856 20.092L15.8742 17.3516V3.45484L10.6856 6.12601V20.092ZM23.3697 20.0488V6.10122L18.4682 3.50661V17.3864L23.3697 20.0488ZM2.59787 17.0075L8.09162 20.0235V6.11618L2.59787 3.42098V17.0075Z" fill="white"/>
</svg>
